<svg version="1.1" xmlns="http://www.w3.org/2000/svg" viewBox="0 0 917 382" width="917" height="382">
  <!-- svg-source:excalidraw -->
  
  <defs>
    <style class="style-fonts">
      @font-face {
        font-family: "Virgil";
        src: url("https://excalidraw.com/Virgil.woff2");
      }
      @font-face {
        font-family: "Cascadia";
        src: url("https://excalidraw.com/Cascadia.woff2");
      }
    </style>
    
  </defs>
  <g stroke-linecap="round" transform="translate(160 41) rotate(0 272.5 163.5)"><path d="M0.59 0.42 C186.88 -0.32, 373.57 -0.09, 545.43 -0.42 M0.18 0.1 C178.13 -1.71, 355.98 -1.5, 544.71 -0.35 M543.99 1.16 C541.84 85.79, 543.49 170.5, 544.41 327.53 M544.74 -0.53 C543.15 127.53, 542.23 253.49, 545.58 327.05 M544.89 326.83 C393.01 324.78, 239.66 325.57, 0.6 327.09 M545.14 326.87 C429.52 328.03, 314.71 327.81, -0.28 327.35 M0.06 327.78 C1.06 220.03, 1.38 114.27, 1.27 1.17 M-0.52 326.91 C-1.41 240.28, -2.12 154.29, -0.24 0.26" stroke="#1e1e1e" stroke-width="1" fill="none"></path></g><g transform="translate(835 44) rotate(0 36 12.5)"><text x="0" y="0" font-family="Virgil, Segoe UI Emoji" font-size="20px" fill="#1e1e1e" text-anchor="start" style="white-space: pre;" direction="ltr" dominant-baseline="text-before-edge">&lt;table&gt;</text></g><g stroke-linecap="round"><g transform="translate(859.622043793981 70.48491488058369) rotate(5.187291343530625 -65.78567395318055 20.38151046263762)"><path d="M0.07 -0.08 C-0.08 0.68, 0.13 1.09, -0.1 1.55 M-0.08 -0.04 C0.07 0.37, -0.01 0.72, -0.08 1.6 M-1.99 3.47 C-35.47 12.52, -75.83 23, -131.85 40.85 M0.85 0.62 C-36.41 12.2, -70.97 20.94, -132.42 40.21" stroke="#1e1e1e" stroke-width="1" fill="none"></path></g><g transform="translate(859.622043793981 70.48491488058369) rotate(5.187291343530625 -65.78567395318055 20.38151046263762)"><path d="M-107.57 21.16 C-118.64 29.92, -125.23 34.17, -133.63 39.47 M-109.37 21.67 C-112.88 26.5, -119.29 30.4, -133.42 40.07" stroke="#1e1e1e" stroke-width="1" fill="none"></path></g><g transform="translate(859.622043793981 70.48491488058369) rotate(5.187291343530625 -65.78567395318055 20.38151046263762)"><path d="M-101.6 40.8 C-114.81 42.02, -123.69 38.73, -133.63 39.47 M-103.39 41.3 C-108.32 41.8, -116.07 41.31, -133.42 40.07" stroke="#1e1e1e" stroke-width="1" fill="none"></path></g></g><mask></mask><g stroke-linecap="round" transform="translate(167 49) rotate(0 265 34)"><path d="M-0.16 -0.35 C176.49 0.04, 352.1 -0.81, 529.52 -0.28 M0.1 0.18 C202.78 -1.78, 406.02 -2.01, 530.01 -0.16 M530.8 1.82 C531.62 23.2, 528.97 44.67, 529.1 67.69 M530.83 0.12 C530.38 25.85, 529.21 51.93, 529.23 68.36 M530.43 67.96 C363.59 67.44, 196.66 67.84, 0.21 68.63 M529.98 68.16 C327.27 69.38, 124.33 69.47, 0.3 67.85 M-0.16 68.74 C-0.46 53.2, -1.51 41.72, -1.76 -1.71 M-0.89 67.82 C1.15 53, 0.24 39.19, -0.63 -0.96" stroke="#1971c2" stroke-width="1" fill="none"></path></g><g transform="translate(10 49) rotate(0 39 12.5)"><text x="0" y="0" font-family="Virgil, Segoe UI Emoji" font-size="20px" fill="#1971c2" text-anchor="start" style="white-space: pre;" direction="ltr" dominant-baseline="text-before-edge">&lt;thead&gt;</text></g><g stroke-linecap="round" transform="translate(166 122) rotate(0 266 92.5)"><path d="M0.5 -0.47 C110.99 -0.95, 222.74 -0.96, 531.71 0.24 M-0.05 -0.25 C132.17 -0.31, 264.77 -0.03, 531.73 0.26 M530.42 1.07 C532.76 51.8, 531.26 104.2, 532.19 183.83 M531.17 -0.29 C531.71 70.87, 530.71 140.63, 531.21 184.8 M531.83 184.34 C369.68 187.47, 207.49 187, -0.56 184.42 M532.08 184.98 C324.81 186.73, 117.71 186.5, -0.33 185.06 M0.53 183.45 C-0.03 129.22, -0.43 70.04, 1.22 1.45 M-0.17 185.37 C0.07 117.06, -0.48 50.19, -0.82 -0.8" stroke="#2f9e44" stroke-width="1" fill="none"></path></g><g transform="translate(795 251) rotate(0 37 12.5)"><text x="0" y="0" font-family="Virgil, Segoe UI Emoji" font-size="20px" fill="#2f9e44" text-anchor="start" style="white-space: pre;" direction="ltr" dominant-baseline="text-before-edge">&lt;tbody&gt;</text></g><g stroke-linecap="round"><g transform="translate(46 83) rotate(0 51.15048888651654 -0.5281206199229587)"><path d="M1.13 -0.6 C23.74 -2.24, 46.67 -0.97, 101.61 -0.88 M0.69 0.38 C31.62 -0.09, 61.54 0.33, 99.24 -0.31" stroke="#1971c2" stroke-width="1" fill="none"></path></g><g transform="translate(46 83) rotate(0 51.15048888651654 -0.5281206199229587)"><path d="M72.29 9.65 C77.58 6.41, 83.13 5.36, 100.85 -0.19 M71.86 10.63 C80.53 7.21, 88.24 4.68, 98.49 0.38" stroke="#1971c2" stroke-width="1" fill="none"></path></g><g transform="translate(46 83) rotate(0 51.15048888651654 -0.5281206199229587)"><path d="M72.07 -10.87 C77.3 -9.16, 82.9 -5.25, 100.85 -0.19 M71.64 -9.89 C80.48 -6.97, 88.25 -3.17, 98.49 0.38" stroke="#1971c2" stroke-width="1" fill="none"></path></g></g><mask></mask><g stroke-linecap="round"><g transform="translate(786 274.190351898429) rotate(0 -40.91432245727617 -2.5074379860635077)"><path d="M0.74 -1.6 C-27.1 -3.21, -56.73 -6.03, -81.83 -4.59 M0.9 -0.03 C-18.2 -2.34, -35.36 -3.77, -82.73 -4.85" stroke="#2f9e44" stroke-width="1" fill="none"></path></g><g transform="translate(786 274.190351898429) rotate(0 -40.91432245727617 -2.5074379860635077)"><path d="M-53.49 -15.84 C-62.7 -11.91, -73.73 -9.69, -81.56 -4.09 M-53.34 -14.27 C-60.79 -12.93, -66.18 -11.17, -82.45 -4.35" stroke="#2f9e44" stroke-width="1" fill="none"></path></g><g transform="translate(786 274.190351898429) rotate(0 -40.91432245727617 -2.5074379860635077)"><path d="M-54.12 4.67 C-63.17 1.61, -73.99 -3.17, -81.56 -4.09 M-53.97 6.24 C-61.11 3.16, -66.36 0.49, -82.45 -4.35" stroke="#2f9e44" stroke-width="1" fill="none"></path></g></g><mask></mask><g stroke-linecap="round" transform="translate(174 59) rotate(0 60.5 24)"><path d="M-0.18 1.25 C47.01 0.17, 95.25 0, 122.23 -1.17 M0.92 0.05 C35.08 0.72, 69.52 0.44, 121.59 -0.55 M120.21 1.94 C120.04 8.89, 120.13 18.41, 122.1 48.85 M121.49 -0.6 C120.61 11.81, 120.63 26.02, 120.71 47.46 M120.33 48.08 C86.92 47.15, 54.64 48.33, 1.5 46.13 M120.51 47.46 C88.51 47.11, 54.47 47.67, -0.6 48.87 M0.74 47.38 C1.22 33, -1.23 18, 0.16 -1.98 M0.89 47.1 C0.53 29.49, -0.36 10.94, 0.57 0.9" stroke="#e03131" stroke-width="1" fill="none"></path></g><g stroke-linecap="round" transform="translate(307 57) rotate(0 60.5 24)"><path d="M-1.06 1.88 C37.66 -1.82, 73.2 -0.55, 119.6 -0.94 M-0.42 0.31 C33.32 -1.56, 65.39 -0.64, 121.26 -0.39 M119.6 0.79 C121.97 15.95, 120.26 30.37, 120.72 46.95 M121.2 0.63 C120.35 17.81, 120.5 35.82, 121.99 48.86 M122.6 47.24 C79.54 46.79, 34.17 48.04, 0.81 49.73 M120.68 48.32 C83.63 48, 47.6 47.64, 0.52 48.83 M-0.34 47.67 C0.91 29.91, 1.08 12.24, 0.47 -1.35 M0.05 47.23 C-0.52 28.37, 0.01 9.65, -0.35 -0.03" stroke="#e03131" stroke-width="1" fill="none"></path></g><g stroke-linecap="round" transform="translate(440 57) rotate(0 60.5 24)"><path d="M0.8 0.38 C31.75 -0.82, 59.44 1.47, 119.55 1.82 M0.6 0.22 C43.02 -0.3, 84.7 0.21, 121.52 -0.66 M120.6 -1.5 C119.34 14.8, 118.99 29.04, 119.96 46.17 M121.6 0.48 C120.19 17.38, 121.7 35.89, 121.02 47.66 M119.62 47.02 C72.31 45.56, 26.18 47.77, 1.11 46.79 M120.62 47.34 C88.23 46.26, 55.18 47.45, 0.87 47.93 M-0.16 46.8 C-0.18 38.25, 0.88 26.02, 0.44 0.86 M0.06 47.65 C0.87 34.9, 0.72 22.15, 0.78 -0.47" stroke="#e03131" stroke-width="1" fill="none"></path></g><g stroke-linecap="round" transform="translate(567 57) rotate(0 60.5 24)"><path d="M0.83 -0.67 C29.56 -2.41, 59.97 -1.33, 120.92 0.95 M-0.46 0.29 C40.11 -0.19, 79.61 -0.43, 121.36 0.3 M122.91 1.54 C120.03 14.37, 120.38 24.84, 119.66 48.32 M120.66 0.21 C121.14 18.04, 121.57 38.1, 120.77 47.18 M121.61 49.76 C93.23 49.7, 68.73 49.32, 0.81 46.4 M120.83 48.32 C90.99 49.31, 59.63 47.98, 0.33 47.15 M-0.43 46.03 C1.72 32.22, 0.91 14.55, 0.89 1.04 M0.37 48.9 C0 30.59, -0.42 11.47, 0.65 -0.38" stroke="#e03131" stroke-width="1" fill="none"></path></g><g transform="translate(38 130) rotate(0 21.5 12.5)"><text x="0" y="0" font-family="Virgil, Segoe UI Emoji" font-size="20px" fill="#e03131" text-anchor="start" style="white-space: pre;" direction="ltr" dominant-baseline="text-before-edge">&lt;th&gt;</text></g><g stroke-linecap="round"><g transform="translate(92 119) rotate(0 46.67114619258791 -14.09796493826434)"><path d="M0.09 1.78 C33.7 -8.91, 66.03 -20.81, 91.16 -29.86 M-0.31 -0.23 C22.47 -5.28, 44.66 -12.35, 93.65 -29.97" stroke="#e03131" stroke-width="1" fill="none"></path></g><g transform="translate(92 119) rotate(0 46.67114619258791 -14.09796493826434)"><path d="M70.56 -9.15 C79.85 -16.5, 87.83 -24.93, 91.81 -30.83 M70.16 -11.16 C76.55 -14.51, 82.41 -19.24, 94.3 -30.95" stroke="#e03131" stroke-width="1" fill="none"></path></g><g transform="translate(92 119) rotate(0 46.67114619258791 -14.09796493826434)"><path d="M63.75 -28.51 C75.48 -29.1, 85.84 -30.77, 91.81 -30.83 M63.34 -30.52 C71.19 -29.28, 78.65 -29.49, 94.3 -30.95" stroke="#e03131" stroke-width="1" fill="none"></path></g></g><mask></mask><g stroke-linecap="round" transform="translate(166 313) rotate(0 265.5 24.5)"><path d="M-0.16 -0.05 C196.01 -1.53, 393.92 -1.69, 531.21 0.66 M-0.1 0.31 C122.38 2.17, 243.98 2.12, 530.83 0.38 M531.16 1.93 C529.49 10.71, 532.25 24.77, 532.89 49.81 M531.55 -0.12 C530.97 18.71, 531.08 37.98, 531.46 49.69 M531.74 49.39 C410.16 47.71, 289.95 47.38, 0.52 49.12 M530.68 49.05 C372.48 46.77, 213.83 47.06, -0.3 48.62 M0.29 48.33 C1.61 35.35, 0.09 22.26, -0.2 1.82 M-0.93 49.17 C0.52 32.72, -0.81 16.19, -0.89 -0.82" stroke="#846358" stroke-width="1" fill="none"></path></g><g transform="translate(20 347) rotate(0 38 12.5)"><text x="0" y="0" font-family="Virgil, Segoe UI Emoji" font-size="20px" fill="#846358" text-anchor="start" style="white-space: pre;" direction="ltr" dominant-baseline="text-before-edge">&lt;tfood&gt;</text></g><g stroke-linecap="round"><g transform="translate(87 340) rotate(0 41.10753946332261 -1.7063119816593826)"><path d="M1.92 1.15 C17.11 -2.33, 38.82 -3.61, 82 -3.12 M0.22 -0.8 C22.62 -1.36, 47.34 -3.13, 80.24 -4.56" stroke="#846358" stroke-width="1" fill="none"></path></g><g transform="translate(87 340) rotate(0 41.10753946332261 -1.7063119816593826)"><path d="M54.49 8.2 C57.45 2.89, 66.86 0.08, 81.23 -2.68 M52.8 6.25 C59.74 3.7, 69.01 0.01, 79.47 -4.12" stroke="#846358" stroke-width="1" fill="none"></path></g><g transform="translate(87 340) rotate(0 41.10753946332261 -1.7063119816593826)"><path d="M53.5 -12.3 C56.49 -12.87, 66.13 -10.96, 81.23 -2.68 M51.8 -14.25 C59.06 -10.86, 68.61 -8.62, 79.47 -4.12" stroke="#846358" stroke-width="1" fill="none"></path></g></g><mask></mask><g stroke-linecap="round" transform="translate(175 130) rotate(0 58.5 22.5)"><path d="M1.2 0.85 C34.69 -1.8, 71.26 0.07, 117.26 0.79 M-0.12 0.75 C26.35 -0.91, 52.67 0.47, 117.54 -0.99 M117.31 -0.62 C116.96 13.36, 118.75 26.57, 117.53 44.38 M116.55 0.32 C115.63 15.56, 115.91 32.53, 117.18 45.07 M117.84 45.45 C75.24 43.36, 29.26 45.1, 1.99 46.33 M116.24 45.27 C92.36 46.16, 68.94 44.62, -0.93 44.83 M0.79 43.58 C1.31 33.4, -1.01 22.36, -1.04 0.61 M0.13 45.32 C0.69 31.36, 0.6 16.68, -0.7 0.01" stroke="#6741d9" stroke-width="1" fill="none"></path></g><g stroke-linecap="round" transform="translate(307 130) rotate(0 58.5 22.5)"><path d="M-0.58 -1.61 C37.74 -0.23, 74.29 0.3, 115.58 -0.08 M-0.42 -0.86 C34.71 -0.36, 71.69 -1.86, 117.01 -0.24 M117.06 -0.18 C118.92 9.55, 117.6 19.48, 118.2 43.21 M116.03 -0.63 C116.11 12.76, 116.97 25.31, 117.69 45 M118.42 43.91 C86.03 45.92, 59.8 46.59, -1.93 45.55 M116.19 45.61 C76.07 44.38, 35 45.14, -0.43 44.91 M1.27 44.98 C-1.23 33.06, -1.22 20.66, 0.27 0.76 M0.86 45.45 C0.71 31.03, -0.76 17.32, 0.36 -0.47" stroke="#6741d9" stroke-width="1" fill="none"></path></g><g stroke-linecap="round" transform="translate(438 130) rotate(0 58.5 22.5)"><path d="M0.73 0.26 C40.31 1.73, 78.67 0.86, 117.08 -0.24 M-0.86 0.52 C44.4 0.02, 87.72 0.77, 116.23 0.15 M118.85 -0.5 C117.55 11.49, 118.21 22.43, 116.61 44.09 M116.32 0.14 C116.74 15.02, 117.26 29.9, 116.53 45.42 M115.63 45.65 C81.28 45.69, 39.64 44.91, 0.93 43.47 M116.61 44.07 C77.85 45.55, 40.13 45.63, -0.23 45.39 M-1.05 45.53 C-1.33 35.31, -0.02 25.16, 0.15 0.27 M0.77 44.87 C-1.09 30.08, -0.02 14.66, 0.65 0.56" stroke="#6741d9" stroke-width="1" fill="none"></path></g><g stroke-linecap="round" transform="translate(565 130) rotate(0 58.5 22.5)"><path d="M0.26 0.79 C24.28 -0.24, 51.48 -0.39, 118.5 -0.83 M0.54 -0.99 C25.01 -0.84, 49.25 -0.46, 116.69 0.03 M117.53 -0.62 C118.61 11.31, 117.03 25.29, 117.65 43.07 M117.18 0.07 C117.38 10.65, 116.22 21.73, 117.22 45.71 M118.99 46.33 C86.37 45.93, 60.53 43.86, 0.53 43.38 M116.07 44.83 C74.3 43.82, 32.23 44.31, -0.71 45.63 M-1.04 45.61 C0.5 32.3, 0.39 18.34, 0.64 1.72 M-0.7 45.01 C0.02 29, 0.31 14.5, 0.92 -0.08" stroke="#6741d9" stroke-width="1" fill="none"></path></g><g stroke-linecap="round" transform="translate(174 184) rotate(0 58.5 22.5)"><path d="M1.51 1.07 C24.44 0.28, 53.44 -1.56, 115.83 0.73 M0.56 0.92 C27.05 -0.83, 55.55 -1.25, 117.73 0.56 M115.36 -0.6 C118.03 10.84, 116.05 20.94, 117.24 43.63 M116.51 0.16 C118.19 9.69, 116.93 19.4, 116.97 45.63 M117.29 45.87 C87.56 42.4, 56.08 43.54, 1.4 45.35 M116.53 45.56 C83.27 44.46, 50.18 43.84, 0.76 44.95 M-1.86 46.19 C0.29 29.74, -0.63 12.74, -0.25 -1.31 M0.16 44.25 C-0.28 27.07, -0.04 10.28, -0.44 0.16" stroke="#6741d9" stroke-width="1" fill="none"></path></g><g stroke-linecap="round" transform="translate(306 184) rotate(0 58.5 22.5)"><path d="M-1.99 1.19 C44.77 -1.27, 87.22 0.11, 115.7 -1.33 M-0.46 -0.26 C41.32 -1.76, 82.3 -0.52, 116.53 -0.78 M118.38 -0.57 C116.03 14.88, 116.87 32.13, 115.18 46.08 M117.94 0.29 C116.47 10.84, 116.75 21.14, 116.61 44.91 M118.06 43.32 C91.16 44.97, 66.57 45.86, -0.26 45.85 M116.86 45.01 C87.73 45.04, 58.48 45.61, 0.75 45.99 M0.73 46.61 C0.23 31.88, 0.17 14.51, 1.75 -0.22 M-0.33 44.51 C-0.16 30.62, -0.51 16.07, 0.68 -0.4" stroke="#6741d9" stroke-width="1" fill="none"></path></g><g stroke-linecap="round" transform="translate(437 184) rotate(0 58.5 22.5)"><path d="M0.57 -0.65 C40.16 0.04, 81.37 -2.03, 117.97 1.12 M0.53 -0.69 C46.58 0.86, 91.22 -0.47, 117.72 -0.82 M116.4 -1.87 C117.55 10.79, 115.49 25.4, 115.56 44.03 M116.69 0.59 C117.39 14.84, 117.03 28.34, 116.22 45.15 M117.08 44.46 C78.18 44.37, 36.31 44.87, -0.93 44.06 M117.37 44.39 C76.11 44.96, 34.43 46, 0.24 44.07 M-0.19 46.48 C-0.42 27.52, 1.59 12.43, 0.46 0.31 M-0.09 45.16 C-0.29 35.03, 0.83 24.34, -0.04 -0.04" stroke="#6741d9" stroke-width="1" fill="none"></path></g><g stroke-linecap="round" transform="translate(564 184) rotate(0 58.5 22.5)"><path d="M-1.17 0.73 C40.74 -0.95, 85.06 1.5, 118.84 -0.91 M0.73 0.56 C31.59 0.03, 64.83 -0.02, 116.7 0.69 M117.24 -1.37 C115.05 13.31, 115.42 23.48, 117.32 46.89 M116.97 0.63 C116.47 14.71, 116.07 29.73, 117.44 45.53 M118.4 45.35 C91.48 45.54, 65.53 43.74, 1.12 44.73 M117.76 44.95 C82.57 45.27, 46.88 43.35, 0.6 45.37 M-0.25 43.69 C1.79 27.66, 0.51 11.07, -1.5 -0.67 M-0.44 45.16 C0.72 33.28, 0 22.33, 0.92 -0.59" stroke="#6741d9" stroke-width="1" fill="none"></path></g><g stroke-linecap="round" transform="translate(174 239) rotate(0 58.5 22.5)"><path d="M0.54 0.89 C24.74 0.9, 52.17 -1.94, 118.79 -1.56 M-0.21 0.95 C43.81 -0.92, 88.82 -0.3, 117.11 -0.91 M115.8 0.66 C115.83 11.83, 115.54 27.05, 115.51 45.13 M117.1 -0.16 C117.81 9.41, 118.1 19.95, 116.14 45.07 M116.44 46.56 C73.45 45.69, 27.71 46.85, -1.18 46.29 M117.54 45.36 C71.79 44.23, 27.08 45.62, 0.89 44.44 M-0.67 44.44 C-0.84 27.16, -0.9 9.92, -0.88 1.02 M-0.22 44.9 C1.03 27.83, 0.3 13.08, -0.18 0.14" stroke="#6741d9" stroke-width="1" fill="none"></path></g><g stroke-linecap="round" transform="translate(306 239) rotate(0 58.5 22.5)"><path d="M-1.39 1.25 C38.55 -2.11, 79.04 -2.08, 118.6 1.33 M-0.66 -0.15 C42.74 -0.64, 85.8 -2.02, 116.99 0.32 M115.68 -1.61 C115.12 10.05, 115.24 19.89, 115.55 45.5 M117.69 -0.84 C118.04 11.58, 116.19 24.31, 117.75 45.12 M117.37 45.49 C78.39 47.56, 41.48 47.2, 1.68 44.96 M116.73 44.3 C82.6 46.12, 49.19 44.86, 0.77 45.6 M-0.57 44.11 C-0.48 27.4, -0.73 13.16, 1.2 -1.39 M0.72 44.02 C0.08 29.46, -0.08 13.14, -0.89 -0.44" stroke="#6741d9" stroke-width="1" fill="none"></path></g><g stroke-linecap="round" transform="translate(437 239) rotate(0 58.5 22.5)"><path d="M-0.07 -1.59 C42.1 -2.3, 82.22 0.6, 118.32 -0.43 M-0.1 0.48 C46.33 -0.74, 92.43 0.5, 116.2 -0.6 M115.39 0.17 C115.22 15.12, 115.26 30.49, 116.38 45.21 M117.99 -0.54 C116.45 12.84, 118.07 25.66, 117.18 44.72 M115.56 46.64 C71.58 46.57, 30.19 45.25, -0.13 46.08 M116.95 45.7 C78.57 43.63, 39.13 44.79, 0.65 44.66 M-0.63 43.83 C-0.76 33.78, 1.32 19.12, 1.11 -0.44 M-0.02 45.46 C-0.5 32.11, -1.21 18.49, 0.66 -0.97" stroke="#6741d9" stroke-width="1" fill="none"></path></g><g stroke-linecap="round" transform="translate(564 239) rotate(0 58.5 22.5)"><path d="M1.79 -1.56 C44.03 2.26, 86.19 0.5, 118.9 -1.31 M0.11 -0.91 C33.33 -0.23, 65.89 -1.16, 117.33 -0.66 M115.51 0.13 C115.19 10.39, 116.02 19.98, 116.67 46.39 M116.14 0.07 C118.2 9.86, 117.62 19.19, 117.78 45.19 M115.82 46.29 C80.74 45.92, 40.99 47.04, 0.72 44.46 M117.89 44.44 C90.81 46.42, 63.74 45.48, -0.28 44.71 M-0.88 46.02 C1.34 32.11, 1.25 21.55, -0.21 1.43 M-0.18 45.14 C-0.88 35.49, 0.67 25.87, -0.51 -0.14" stroke="#6741d9" stroke-width="1" fill="none"></path></g><g stroke-linecap="round" transform="translate(180 316.88757396449705) rotate(0 57.34615384615387 22.056213017751475)"><path d="M-0.79 1.94 C32.69 1.12, 62.5 -0.62, 116.64 0.2 M0.52 -0.03 C25.93 -0.05, 50.87 0.49, 115.59 0.88 M114.55 1.71 C116.54 15.71, 116.18 27.29, 113.45 44.23 M114.99 -0.2 C115.31 11.51, 114.08 21.41, 115.18 43.73 M116.08 44.25 C68.38 45.53, 21.28 43.44, 1.36 45.21 M115.55 43.4 C80.78 45.14, 46.31 45.62, -0.21 45.04 M1.83 43.06 C-1.46 32.9, -1.42 19.58, -0.39 -0.24 M0.59 43.48 C0.25 31.6, 1.14 19.71, 0.02 0.83" stroke="#6741d9" stroke-width="1" fill="none"></path></g><g stroke-linecap="round" transform="translate(309.396449704142 316.88757396449705) rotate(0 57.34615384615387 22.056213017751475)"><path d="M1.97 1.85 C34.7 1.15, 72 1.21, 116.4 -0.76 M-0.37 -0.61 C44.45 -0.06, 89.38 1.16, 114 0.75 M112.76 0.42 C113.68 8.72, 113.97 18, 114.56 45.59 M114.79 -0.84 C115.75 18.33, 115.53 34.61, 114.33 44.37 M113.76 43.94 C81.37 44.86, 49.76 41.35, -1.55 45.66 M114.97 43.61 C79.28 43.67, 44.28 43.51, 0.18 44.04 M-1.38 45.48 C-1.85 36.45, 0.07 26.77, 1.84 -0.2 M0.42 44.47 C-0.09 30.64, 0.15 17.95, -0.12 0.89" stroke="#6741d9" stroke-width="1" fill="none"></path></g><g stroke-linecap="round" transform="translate(437.81262327416175 316.88757396449705) rotate(0 57.34615384615387 22.056213017751475)"><path d="M-0.52 0.39 C37.91 0.56, 71.87 -1.61, 114.67 1.84 M-0.12 0.96 C26.16 -0.19, 51.2 -0.79, 114.62 -0.2 M114.78 -0.21 C114.07 14.26, 114.91 30.16, 116.06 42.91 M115.63 -0.53 C115.06 9.12, 113.88 18.52, 113.7 44.48 M115.26 43.42 C86.49 44.51, 57.9 43.56, 1.28 42.43 M115.3 43.4 C84.33 44.14, 53.29 43.82, 0.82 43.92 M0.35 45.91 C-0.23 28.4, 1.97 13.14, -0.75 -1.14 M0.75 43.42 C0.7 33.89, 0.39 25.05, -0.61 0.31" stroke="#6741d9" stroke-width="1" fill="none"></path></g><g stroke-linecap="round" transform="translate(562.3076923076924 316.88757396449705) rotate(0 57.34615384615381 22.056213017751475)"><path d="M-0.05 1 C31.21 0.47, 67.11 1.04, 114.5 -0.76 M-0.3 -0.12 C42.53 0.49, 86.37 0.25, 115.33 0.23 M115.56 1.26 C115.24 9.06, 114.56 19.92, 114.57 44.66 M115.69 -0.84 C113.76 17.53, 113.75 34.39, 114.05 45 M115.08 43.11 C85.13 44.86, 52.77 45.61, 1.66 45.83 M114.38 44.89 C90.83 44.26, 68.16 44.72, -0.74 45.06 M0.2 45.82 C0.27 27.53, -0.44 10.5, 0.75 1.1 M-0.05 45.01 C0.04 34.55, -0.35 24.54, 0.14 -0.65" stroke="#6741d9" stroke-width="1" fill="none"></path></g><g stroke-linecap="round"><g transform="translate(93 176) rotate(0 48.31668514851481 -7.791196041740477)"><path d="M0.48 -1.17 C27.75 -3.77, 53.9 -7.68, 97.05 -13.46 M-0.47 -0.82 C32.2 -5.08, 64.9 -10.33, 97.1 -14.77" stroke="#6741d9" stroke-width="1" fill="none"></path></g><g transform="translate(93 176) rotate(0 48.31668514851481 -7.791196041740477)"><path d="M71.12 -1.79 C79.02 -4.35, 85.79 -8.03, 96.15 -13.23 M70.18 -1.43 C79.06 -4.81, 87.98 -9.78, 96.2 -14.53" stroke="#6741d9" stroke-width="1" fill="none"></path></g><g transform="translate(93 176) rotate(0 48.31668514851481 -7.791196041740477)"><path d="M68.22 -22.1 C76.83 -19.16, 84.4 -17.33, 96.15 -13.23 M67.27 -21.75 C77.12 -18.4, 87 -16.62, 96.2 -14.53" stroke="#6741d9" stroke-width="1" fill="none"></path></g></g><mask></mask><g stroke-linecap="round"><g transform="translate(115 201) rotate(0 109.1020674430531 65.12771197388693)"><path d="M0.59 -0.16 C72.82 41.71, 147.39 84.96, 217.47 129.98 M-0.54 0.49 C70.66 40.23, 140.49 83.22, 218.75 130.41" stroke="#6741d9" stroke-width="1" fill="none"></path></g><g transform="translate(115 201) rotate(0 109.1020674430531 65.12771197388693)"><path d="M190.05 124.42 C198.28 124.72, 210.51 126.85, 216.85 130.39 M188.64 125.22 C199.43 125.35, 207.93 128.54, 218.43 130.92" stroke="#6741d9" stroke-width="1" fill="none"></path></g><g transform="translate(115 201) rotate(0 109.1020674430531 65.12771197388693)"><path d="M200.67 106.85 C205.53 112.97, 214.24 120.93, 216.85 130.39 M199.26 107.65 C206.54 113.51, 211.61 122.36, 218.43 130.92" stroke="#6741d9" stroke-width="1" fill="none"></path></g></g><mask></mask><g transform="translate(54 173) rotate(0 22 12.5)"><text x="0" y="0" font-family="Virgil, Segoe UI Emoji" font-size="20px" fill="#6741d9" text-anchor="start" style="white-space: pre;" direction="ltr" dominant-baseline="text-before-edge">&lt;td&gt;</text></g><g transform="translate(209 11) rotate(0 45 12.5)"><text x="0" y="0" font-family="Virgil, Segoe UI Emoji" font-size="20px" fill="#f08c00" text-anchor="start" style="white-space: pre;" direction="ltr" dominant-baseline="text-before-edge">&lt;caption&gt;</text></g><g transform="translate(377 10) rotate(0 60 12.5)"><text x="0" y="0" font-family="Virgil, Segoe UI Emoji" font-size="20px" fill="#f08c00" text-anchor="start" style="white-space: pre;" direction="ltr" dominant-baseline="text-before-edge">Titúlo tabla</text></g><g stroke-linecap="round"><g transform="translate(314 24) rotate(0 22.493635250255466 -1.339807705864061)"><path d="M-0.67 -0.62 C12.42 1.18, 23.54 -1.21, 45.66 -2.85 M0.87 0.15 C10.16 0.32, 20.09 -1.24, 44.49 -0.37" stroke="#f08c00" stroke-width="1" fill="none"></path></g><g transform="translate(314 24) rotate(0 22.493635250255466 -1.339807705864061)"><path d="M22.57 6.43 C29.69 6.71, 34.8 2.69, 45.15 -2.21 M24.12 7.21 C27.95 5.99, 32.38 2.93, 43.98 0.26" stroke="#f08c00" stroke-width="1" fill="none"></path></g><g transform="translate(314 24) rotate(0 22.493635250255466 -1.339807705864061)"><path d="M22.77 -8.96 C29.74 -4.79, 34.8 -4.91, 45.15 -2.21 M24.32 -8.19 C28 -5.84, 32.37 -5.33, 43.98 0.26" stroke="#f08c00" stroke-width="1" fill="none"></path></g></g><mask></mask><g stroke-linecap="round" transform="translate(170 181) rotate(0 258.5 26.5)"><path d="M0.64 0.12 C111.94 -0.29, 225.23 -0.16, 517.77 -0.21 M0.27 0.2 C180.54 -0.95, 360.67 -0.73, 516.66 0.4 M515.69 -1 C517.4 11.87, 516.09 29.29, 517.53 53.38 M517.67 -0.5 C516.64 15.38, 517.37 29.26, 517.59 52.58 M516.82 52.48 C326.26 53.21, 135.55 53.12, -0.02 53.22 M517.16 52.64 C336.56 51.36, 156.76 51.73, -0.21 52.69 M-0.42 54.26 C-1.28 34.27, -1.66 20.13, -0.55 1.82 M0.44 52.21 C0.16 38.06, -0.43 24.51, -0.49 -0.38" stroke="#e8590c" stroke-width="1" fill="none"></path></g><g stroke-linecap="round"><g transform="translate(777 196) rotate(0 -44.445810969453305 5.1556817423552275)"><path d="M1.81 -1.2 C-21.48 0.84, -48.2 5.09, -89.19 11.51 M-0.49 0.52 C-27.28 3.53, -52.83 6.59, -90.7 10.72" stroke="#e8590c" stroke-width="1" fill="none"></path></g><g transform="translate(777 196) rotate(0 -44.445810969453305 5.1556817423552275)"><path d="M-62 -3.79 C-68.69 -1.04, -78.84 4.06, -88.9 12.22 M-64.31 -2.07 C-72.32 1.45, -79.14 5.48, -90.41 11.43" stroke="#e8590c" stroke-width="1" fill="none"></path></g><g transform="translate(777 196) rotate(0 -44.445810969453305 5.1556817423552275)"><path d="M-59.74 16.61 C-67.16 14.09, -77.9 13.91, -88.9 12.22 M-62.04 18.32 C-70.93 15.91, -78.41 13.97, -90.41 11.43" stroke="#e8590c" stroke-width="1" fill="none"></path></g></g><mask></mask><g transform="translate(787 182) rotate(0 21 12.5)"><text x="0" y="0" font-family="Virgil, Segoe UI Emoji" font-size="20px" fill="#e8590c" text-anchor="start" style="white-space: pre;" direction="ltr" dominant-baseline="text-before-edge">&lt;tr&gt;</text></g></svg>